<svg xmlns="http://www.w3.org/2000/svg" viewBox="0 0 1799 1165"><g fill="none" stroke-width="2"><path stroke="#899ce8" d="M411.78 401.24H153.93a.36.29-2.2 0 0-.36.32l9.28 102.43a.69.55-1.7 0 0 .68.51l248.97.04" vector-effect="non-scaling-stroke"/><path stroke="#2859eb" d="M412.5 504.54q.4 52.82-.53 105.7" vector-effect="non-scaling-stroke"/><path stroke="#899ce8" d="M411.97 610.24H172.99a.86.83 87.2 0 0-.82.94l9.21 101.89a.54.48-2.3 0 0 .53.44l229.6-.01" vector-effect="non-scaling-stroke"/><path stroke="#2859eb" d="M411.51 713.5q.99 1.22.99 4.25v154.99c0 2.24.57 3.84-1 5.8" vector-effect="non-scaling-stroke"/><path stroke="#899ce8" d="M411.5 878.54 297.56 847.8a.77.56 8 0 1-.57-.55L289.7 766a.89.68 86.9 0 0-.7-.82l-102.5.24a.53.47 87.2 0 0-.46.58l14.42 161.25a.45.29 8.6 0 0 .33.29l211.67 58.71" vector-effect="non-scaling-stroke"/><path stroke="#2859eb" d="m412.46 986.25.03 105.34a1.42 1.38-8 0 0 1.8 1.31l270.63-75.04a.81.66-7.3 0 0 .58-.61l64.1-718.24a1.16 1.11-87.4 0 0-1.1-1.26H413a.5.48-.6 0 0-.5.49q.54 51.48-.72 103" vector-effect="non-scaling-stroke"/><path stroke="#8aa8ee" d="m412.46 986.25.08-.25" vector-effect="non-scaling-stroke"/><path stroke="#94b2f8" d="m412.54 986 210.66-58.32a.97.82-7 0 0 .7-.75L670.78 402a.67.65-87.6 0 0-.65-.73H412.68" vector-effect="non-scaling-stroke"/><path stroke="#8aa8ee" d="m412.68 401.27-.9-.03" vector-effect="non-scaling-stroke"/><path stroke="#f5f5f5" d="M412.54 986q-.07-52.25-.2-104.5 0-1.36-.09-2.71" vector-effect="non-scaling-stroke"/><path stroke="#94b2f8" d="m412.25 878.79 114.52-30.97a.8.56-8.7 0 0 .58-.56L539.27 714a.51.42 2 0 0-.52-.46l-126.39-.08" vector-effect="non-scaling-stroke"/><path stroke="#f5f5f5" d="m412.36 713.46.14-103.17" vector-effect="non-scaling-stroke"/><path stroke="#94b2f8" d="m412.5 610.29 135.24-.06a.57.52 2.2 0 0 .56-.48l9.31-104.69a.52.49-87.3 0 0-.49-.57l-144.24-.01" vector-effect="non-scaling-stroke"/><path stroke="#f5f5f5" d="M412.68 401.27q-.58 51.58.2 103.21" vector-effect="non-scaling-stroke"/><path stroke="#8aa8ee" d="m412.88 504.48-.38.06M412.25 878.79l-.75-.25M412.5 610.29l-.53-.05M412.36 713.46l-.85.04" vector-effect="non-scaling-stroke"/><path stroke="#f2a693" d="m1387.23 401.24-.29.03" vector-effect="non-scaling-stroke"/><path stroke="#e89c89" d="m1386.94 401.27-258.16.03a.49.41-2.1 0 0-.49.45L1156.02 713a.56.5-2.2 0 0 .55.46l230.18.33" vector-effect="non-scaling-stroke"/><path stroke="#eb5928" d="M1386.75 713.79q.27 7.48.29 14.96.21 74.85.21 149.71" vector-effect="non-scaling-stroke"/><path stroke="#f2a693" d="m1387.25 878.46-.5.08" vector-effect="non-scaling-stroke"/><path stroke="#e89c89" d="m1386.75 878.54-114.53-30.89a.76.71 5.9 0 1-.55-.64l-7.22-81a.84.69 86.9 0 0-.7-.76h-102.5a.5.46-2.1 0 0-.5.5L1175.03 926a2.3 2.19 5.5 0 0 1.67 1.93l210.05 58.36" vector-effect="non-scaling-stroke"/><path stroke="#eb5928" d="M1386.75 986.29c.17 1.19.51 2.09.51 3.3q-.02 51.79 0 102.95a.65.65-8.1 0 0 .83.62l271.49-75.29a1.01.94 85.2 0 0 .68-.87l64.15-718.76a.45.42-86.9 0 0-.41-.49h-336.19a.56.55 0 0 0-.56.55l-.02 102.94" vector-effect="non-scaling-stroke"/><path stroke="#eea88a" d="m1386.75 986.29.5-.25" vector-effect="non-scaling-stroke"/><path stroke="#f8b294" d="m1387.25 986.04 210.43-58.28a1.37 1.36 85.1 0 0 .99-1.19l28.16-315.59a.7.66 2.3 0 0-.7-.72l-238.88.03" vector-effect="non-scaling-stroke"/><path stroke="#eea88a" d="m1387.25 610.29-.25-.08" vector-effect="non-scaling-stroke"/><path stroke="#eb5928" d="M1387 610.21q.71-52.86-.25-105.71" vector-effect="non-scaling-stroke"/><path stroke="#f8b294" d="M1386.75 504.5h248.63a1.11 1.06-87.3 0 0 1.06-1.01l9.06-101.74a.54.45 2.3 0 0-.55-.49l-257.72-.02" vector-effect="non-scaling-stroke"/><path stroke="#f5f5f5" d="M1386.94 401.27q-.44 48.43.07 96.81c.02 1.84-.59 4.21-.26 6.42" vector-effect="non-scaling-stroke"/><path stroke="#e89c89" d="m1386.75 504.5-145.02.03a.56.44-1.8 0 0-.57.48l9.36 104.74a.63.56-2 0 0 .62.52l135.86-.06" vector-effect="non-scaling-stroke"/><path stroke="#f5f5f5" d="M1387.25 610.29q-.45 1-.46 3.21-.18 46.35.11 92.69c.02 1.68-.26 3.94-.12 5.98a1.53 1.49-1.8 0 0 1.52 1.39l33.2.15" vector-effect="non-scaling-stroke"/><path stroke="#eea88a" d="m1421.5 713.71-34.75.08" vector-effect="non-scaling-stroke"/><path stroke="#f5f5f5" d="m1387.25 986.04-.22-.05a.28.28 6.6 0 1-.22-.27l-.06-107.18" vector-effect="non-scaling-stroke"/><path stroke="#f8b294" d="m1387.25 878.46 114.27-30.84a.74.67-5.6 0 0 .55-.61l11.85-132.52a.99.94-87.5 0 0-.94-1.08l-91.48.3" vector-effect="non-scaling-stroke"/></g><path d="M194.44 0h124.62l.13 51.76a.5.49 0 0 1-.5.49H247a.5.5 0 0 0-.5.5v51.5a.56.5 0 0 0 .56.5h71.69a.5.5 0 0 1 .5.5v51a.75.75 0 0 1-.75.75H195.25a1.03 1.03-88.9 0 1-1.03-1.07q.13-3.09.13-5.49-.15-75.22.09-150.44ZM344.44 0h124.71l.15 44.79a.8.71 0 0 1-.8.71H397a.5.5 0 0 0-.5.5v8a.51.5 90 0 0 .5.51h70.75a1.51 1.49 0 0 1 1.51 1.49v102.44a1.01.81 0 0 1-1.01.81H345a.75.75 0 0 1-.75-.75V112a.5.5 0 0 1 .5-.5h71.5a.75.75 0 0 0 .75-.75v-7.5a.76.69-90 0 0-.69-.76l-71.06.02a1 .99 0 0 1-1-.99L344.44 0ZM494.65 0h124.66l.1 44.67a.91.82-.3 0 1-.91.83h-71a.71.51.4 0 0-.71.5l-.14 8.31a.59.33.4 0 0 .6.34l71.25-.21a1.06.99 89.7 0 1 1 1.06v103a.81.75 0 0 1-.81.75H495.25a.77.68.4 0 1-.77-.69l.01-46.31a.76.75 0 0 1 .76-.75h71.44a.74.42 89.4 0 0 .41-.75l-.03-6.99a1.27.82 89.7 0 0-.82-1.26H495a.49.47.6 0 1-.49-.48L494.65 0ZM1051.74 0h51.98l.29 51.25a.49.43-90 0 0 .43.49l46.75.05a.77.71.4 0 0 .77-.7l.36-51.1 52.02.01q.28 76.76.15 153.51c-.01 4.38-.21 3.5-3.96 3.5q-22.91-.02-47.6 0a1.01.93-90 0 1-.93-1.01v-50.75a.75.75 0 0 0-.75-.75h-46.75a.56.5 90 0 0-.5.56v51.19a.76.71-.4 0 1-.75.71l-51.19.14a.56.45 0 0 1-.56-.45L1051.74 0ZM1227.49 0h144.43l.33 50.85a1.56 1.38-.2 0 1-1.56 1.39l-44.19-.04a.8.5 90 0 0-.5.8v103a1 .99 0 0 1-1 .99l-50.81.04a.78.69 90 0 1-.69-.78V53a1 .81 0 0 0-1-.81l-44.81.03a.52.43-89.4 0 1-.43-.53l.23-51.69ZM1395.36 0h54.7l32.9 54.08a.8.78-44.8 0 0 1.35-.01L1517.65-.1l54.19.1.16 156.51a.5.48 0 0 1-.5.48l-50.75.04a1.03 1 90 0 1-1-1.03V80.81q0-.71-.48-.42-.8.49-1.44 1.48-16.52 25.81-33.65 52.32a1.25 1.24-44.9 0 1-2.09 0c-3.2-4.93-34.84-54.24-35.3-53.98a.98.47 84.2 0 0-.29.79v75.5a.5.49 0 0 1-.5.49l-49.5.04a1.25 1.2 0 0 1-1.25-1.2L1395.36 0ZM1598.2 0h52.36l-.04 104.76a.5.48 90 0 0 .48.5l72.5-.03a1.09 1.09-89.2 0 1 1.09 1.12q-.4 17.17-.35 33.44c.02 3.8.56 10.91 0 16.32a1.01.99-86.8 0 1-.99.9h-124a1.25 1.24 0 0 1-1.25-1.24L1598.2 0Z"/><path fill="#264de4" d="M824.14 228.94a.77.76 2.4 0 1 .77.82l-75.04 841.06a.74.57 87.5 0 1-.43.61l-336.11 93.21a4.91 4.71 43.8 0 1-2.55 0l-334.48-92.9q-1.71-.47-1.58-2.28.15-2.01.01-3.54Q37.45 649.29.33 232.64c-.37-4.23-.68-3.66 3.1-3.66q409.82.08 820.71-.04Zm-412.36 172.3H153.93a.36.29-2.2 0 0-.36.32l9.28 102.43a.69.55-1.7 0 0 .68.51l248.97.04q.4 52.82-.53 105.7H172.99a.86.83 87.2 0 0-.82.94l9.21 101.89a.54.48-2.3 0 0 .53.44l229.6-.01q.99 1.22.99 4.25v154.99c0 2.24.57 3.84-1 5.8L297.56 847.8a.77.56 8 0 1-.57-.55L289.7 766a.89.68 86.9 0 0-.7-.82l-102.5.24a.53.47 87.2 0 0-.46.58l14.42 161.25a.45.29 8.6 0 0 .33.29l211.67 58.71.03 105.34a1.42 1.38-8 0 0 1.8 1.31l270.63-75.04a.81.66-7.3 0 0 .58-.61l64.1-718.24a1.16 1.11-87.4 0 0-1.1-1.26H413a.5.48-.6 0 0-.5.49q.54 51.48-.72 103Z"/><path fill="#e44d26" d="M1799 229.07v8.24l-74.37 833.01a.93.89 79 0 1-.48.74q-1.56.8-4.47 1.61-165.96 46.04-331.95 92.07a3.44 2.94-41.2 0 1-1.73.02l-335.33-93.15a1.31 1.26 5.4 0 1-.95-1.11l-74.94-841a.45.44 87.1 0 1 .44-.5l823.78.07Zm-411.77 172.17-.29.03-258.16.03a.49.41-2.1 0 0-.49.45L1156.02 713a.56.5-2.2 0 0 .55.46l230.18.33q.27 7.48.29 14.96.21 74.85.21 149.71l-.5.08-114.53-30.89a.76.71 5.9 0 1-.55-.64l-7.22-81a.84.69 86.9 0 0-.7-.76h-102.5a.5.46-2.1 0 0-.5.5L1175.03 926a2.3 2.19 5.5 0 0 1.67 1.93l210.05 58.36c.17 1.19.51 2.09.51 3.3q-.02 51.79 0 102.95a.65.65-8.1 0 0 .83.62l271.49-75.29a1.01.94 85.2 0 0 .68-.87l64.15-718.76a.45.42-86.9 0 0-.41-.49h-336.19a.56.55 0 0 0-.56.55l-.02 102.94Z"/><path fill="#2965f1" d="m412.46 986.25.08-.25 210.66-58.32a.97.82-7 0 0 .7-.75L670.78 402a.67.65-87.6 0 0-.65-.73H412.68l-.9-.03q1.26-51.52.72-103a.5.48-.6 0 1 .5-.49h335.5a1.16 1.11-87.4 0 1 1.1 1.26l-64.1 718.24a.81.66-7.3 0 1-.58.61l-270.63 75.04a1.42 1.38-8 0 1-1.8-1.31l-.03-105.34Z"/><path fill="#f16529" d="m1386.75 986.29.5-.25 210.43-58.28a1.37 1.36 85.1 0 0 .99-1.19l28.16-315.59a.7.66 2.3 0 0-.7-.72l-238.88.03-.25-.08q.71-52.86-.25-105.71h248.63a1.11 1.06-87.3 0 0 1.06-1.01l9.06-101.74a.54.45 2.3 0 0-.55-.49l-257.72-.02.02-102.94a.56.55 0 0 1 .56-.55H1724a.45.42-86.9 0 1 .41.49L1660.26 1017a1.01.94 85.2 0 1-.68.87l-271.49 75.29a.65.65-8.1 0 1-.83-.62q-.02-51.16 0-102.95c0-1.21-.34-2.11-.51-3.3Z"/><path fill="#ebebeb" d="m411.78 401.24.9.03q-.58 51.58.2 103.21l-.38.06-248.97-.04a.69.55-1.7 0 1-.68-.51l-9.28-102.43a.36.29-2.2 0 1 .36-.32h257.85Z"/><path fill="#fff" d="M412.68 401.27h257.45a.67.65-87.6 0 1 .65.73L623.9 926.93a.97.82-7 0 1-.7.75L412.54 986q-.07-52.25-.2-104.5 0-1.36-.09-2.71l114.52-30.97a.8.56-8.7 0 0 .58-.56L539.27 714a.51.42 2 0 0-.52-.46l-126.39-.08.14-103.17 135.24-.06a.57.52 2.2 0 0 .56-.48l9.31-104.69a.52.49-87.3 0 0-.49-.57l-144.24-.01q-.78-51.63-.2-103.21Z"/><path fill="#ebebeb" d="M1386.94 401.27q-.44 48.43.07 96.81c.02 1.84-.59 4.21-.26 6.42l-145.02.03a.56.44-1.8 0 0-.57.48l9.36 104.74a.63.56-2 0 0 .62.52l135.86-.06.25.08q-.45 1-.46 3.21-.18 46.35.11 92.69c.02 1.68-.26 3.94-.12 5.98a1.53 1.49-1.8 0 0 1.52 1.39l33.2.15-34.75.08-230.18-.33a.56.5-2.2 0 1-.55-.46l-27.73-311.25a.49.41-2.1 0 1 .49-.45l258.16-.03Z"/><path fill="#fff" d="m1386.94 401.27.29-.03 257.72.02a.54.45 2.3 0 1 .55.49l-9.06 101.74a1.11 1.06-87.3 0 1-1.06 1.01h-248.63c-.33-2.21.28-4.58.26-6.42q-.51-48.38-.07-96.81Z"/><path fill="#2965f1" d="m412.5 504.54.38-.06 144.24.01a.52.49-87.3 0 1 .49.57l-9.31 104.69a.57.52 2.2 0 1-.56.48l-135.24.06-.53-.05q.93-52.88.53-105.7Z"/><path fill="#e44d26" d="M1386.75 504.5q.96 52.85.25 105.71l-135.86.06a.63.56-2 0 1-.62-.52l-9.36-104.74a.56.44-1.8 0 1 .57-.48l145.02-.03Z"/><path fill="#ebebeb" d="m411.97 610.24.53.05-.14 103.17-.85.04-229.6.01a.54.48-2.3 0 1-.53-.44l-9.21-101.89a.86.83 87.2 0 1 .82-.94h238.98Z"/><path fill="#fff" d="m1387.25 610.29 238.88-.03a.7.66 2.3 0 1 .7.72l-28.16 315.59a1.37 1.36 85.1 0 1-.99 1.19l-210.43 58.28-.22-.05a.28.28 6.6 0 1-.22-.27l-.06-107.18.5-.08 114.27-30.84a.74.67-5.6 0 0 .55-.61l11.85-132.52a.99.94-87.5 0 0-.94-1.08l-91.48.3-33.2-.15a1.53 1.49-1.8 0 1-1.52-1.39c-.14-2.04.14-4.3.12-5.98q-.29-46.34-.11-92.69.01-2.21.46-3.21Z"/><path fill="#2965f1" d="m412.25 878.79-.75-.25c1.57-1.96 1-3.56 1-5.8V717.75q0-3.03-.99-4.25l.85-.04 126.39.08a.51.42 2 0 1 .52.46l-11.92 133.26a.8.56-8.7 0 1-.58.56l-114.52 30.97Z"/><path fill="#f16529" d="M1387.25 878.46q0-74.86-.21-149.71-.02-7.48-.29-14.96l34.75-.08 91.48-.3a.99.94-87.5 0 1 .94 1.08l-11.85 132.52a.74.67-5.6 0 1-.55.61l-114.27 30.84Z"/><path fill="#ebebeb" d="m411.5 878.54.75.25q.09 1.35.09 2.71.13 52.25.2 104.5l-.08.25-211.67-58.71a.45.29 8.6 0 1-.33-.29L186.04 766a.53.47 87.2 0 1 .46-.58l102.5-.24a.89.68 86.9 0 1 .7.82l7.29 81.25a.77.56 8 0 0 .57.55l113.94 30.74ZM1386.75 878.54l.06 107.18a.28.28 6.6 0 0 .22.27l.22.05-.5.25-210.05-58.36a2.3 2.19 5.5 0 1-1.67-1.93l-14.28-160.25a.5.46-2.1 0 1 .5-.5h102.5a.84.69 86.9 0 1 .7.76l7.22 81a.76.71 5.9 0 0 .55.64l114.53 30.89Z"/></svg>